<?xml version="1.0" encoding="utf-8"?>
<!-- Generator: Adobe Illustrator 15.0.0, SVG Export Plug-In . SVG Version: 6.00 Build 0)  -->
<!DOCTYPE svg PUBLIC "-//W3C//DTD SVG 1.0//EN" "http://www.w3.org/TR/2001/REC-SVG-20010904/DTD/svg10.dtd">
<svg version="1.0" id="Ebene_1" xmlns="http://www.w3.org/2000/svg" xmlns:xlink="http://www.w3.org/1999/xlink" x="0px" y="0px"
	 width="312.784px" height="321.8px" viewBox="0 0 312.784 321.8" enable-background="new 0 0 312.784 321.8" xml:space="preserve">
<path fill="#FFFFFF" d="M309.331,86.68c-4.73-11.92-13.98-19.78-26.051-22.13c-0.579-0.12-1.18-0.22-1.79-0.31
	c-0.029-1.81-0.079-3.57-0.14-5.34c-0.06-1.76-0.11-3.43-0.13-4.95c0-0.12,0-0.23-0.01-0.4l-0.01-0.25
	c-1.461-24.62-17.44-36.27-30.551-41.69c-11.54-4.9-26.81-3.57-45.27,3.95C193.98,5.37,176.93,0,155.85,0
	c-21.09,0-38.14,5.37-49.54,15.55C95.16,11,85.11,8.7,76.41,8.7c-5.65,0-10.79,0.97-15.27,2.86c-13.18,5.46-29.21,17.13-30.65,41.67
	c-0.01,0.12-0.01,0.24-0.02,0.4l-0.01,0.29c-0.01,1.23-0.05,2.51-0.09,3.85l-0.03,1.13c-0.06,1.77-0.11,3.61-0.15,5.52
	c-0.23,0.04-0.46,0.08-0.68,0.13C17.43,66.9,8.18,74.77,3.46,86.68c-7.36,18.53-2.7,45.12,11.32,64.67
	c7.04,9.8,16.69,18.25,27.93,24.43c11.31,6.21,23.07,9.5,34,9.5c9.33,0,17.78-2.3,25.11-6.83c2.03-1.26,4-2.64,5.86-4.1
	c0.4,0.17,0.81,0.34,1.22,0.51c3.32,1.38,13.08,5.44,15.52,7.41c1.55,5.56,1.1,30.77,0.95,39.28c-0.11,5.68-0.19,10.75-0.19,15.279
	c0,19.721-1.09,27.19-1.85,30c-3.33,0.41-8.94,0.811-13.27,1.11l-0.14,0.01c-28.41,1.99-49.23,4.29-58.49,15.851
	c-4.14,5.17-4.98,11.649-2.25,17.329c3.71,7.721,12.88,13.641,45.56,17.44c17.32,2.03,40.17,3.23,61.11,3.23
	c20.94,0,43.78-1.2,61.101-3.23c32.68-3.8,41.85-9.72,45.55-17.43c2.739-5.69,1.899-12.17-2.25-17.351
	c-9.261-11.55-30.08-13.85-58.49-15.84l-0.2-0.02c-4.31-0.301-9.89-0.69-13.21-1.101c-0.76-2.81-1.85-10.29-1.85-30
	c0-4.399-0.08-9.29-0.17-14.47l-0.011-0.76c-0.149-8.5-0.6-33.71,0.95-39.32c2.46-1.99,12.21-6.04,15.54-7.43l1.36-0.57
	c0.189-0.08,0.37-0.16,0.56-0.23c1.94,1.55,4.03,3.03,6.23,4.39c7.33,4.54,15.779,6.84,25.12,6.84c22.12,0,47.58-13.95,61.93-33.93
	C312.02,131.81,316.68,105.22,309.331,86.68z M236.081,159.77c-1.69,0-3.311-0.14-4.83-0.43c16.819-12.32,31.13-28.66,39.92-45.75
	c3.93-7.64,6.68-15.44,8.34-23.73c2.86,0.88,4.77,2.84,6.11,6.23c4.109,10.38,0.449,28.12-8.341,40.38
	C267.59,149.97,250.26,159.77,236.081,159.77z M76.71,159.77c-14.19,0-31.51-9.8-41.2-23.3c-8.8-12.26-12.46-30-8.34-40.38
	c1.18-2.97,2.8-4.85,5.08-5.85c1.68,8.15,4.39,15.82,8.26,23.35c8.85,17.21,23.23,33.58,40.13,45.9
	C79.38,159.68,78.07,159.77,76.71,159.77z M207.68,144.38c-0.57,0.35-1.13,0.68-1.68,0.99c-3.37,1.92-8.28,3.96-13.021,5.93
	l-0.21,0.1c-11.649,4.84-22.64,9.43-27.569,17.89c-4.661,7.97-4.92,22.91-4.391,52.76l0.01,0.96c0.09,4.979,0.17,9.689,0.17,13.819
	c0,26.29,1.01,45.44,14.03,52.54c4.61,2.53,10.62,3.03,24.96,4.03l0.181,0.01c2.34,0.17,4.76,0.34,7.21,0.53
	c-15.511,1.5-34.08,2.36-51.521,2.36c-17.45,0-36.02-0.86-51.53-2.36c2.45-0.19,4.87-0.36,7.2-0.53l0.19-0.01
	c14.33-1,20.33-1.5,24.94-4.021c13.03-7.109,14.04-26.27,14.04-52.55c0-4.3,0.09-9.26,0.19-14.819
	c0.53-29.831,0.27-44.76-4.39-52.73c-4.95-8.44-16.03-13.07-26.8-17.57l-0.45-0.18c-0.2-0.09-0.39-0.17-0.53-0.22l-0.14-0.06
	c-4.71-1.96-9.58-3.99-12.9-5.88l-0.88-0.52c-13.48-7.88-31.49-23.3-41.59-42.93c-2.69-5.24-4.6-10.55-5.82-16.24
	c-1.11-5.14-1.65-10.46-1.7-16.75c-0.03-3.12,0.06-6.11,0.15-8.99l0.05-1.64c0.04-1.31,0.07-2.58,0.09-3.79
	c0.36-5.84,2.33-14.17,15.04-19.42c1.35-0.57,3.21-0.88,5.4-0.88c6.93,0,16.71,2.93,27.52,8.24c1.74,0.85,3.68,1.3,5.61,1.3
	c4.18,0,8.1-2.04,10.48-5.47c7.36-10.56,23.54-12.78,35.83-12.78c12.28,0,28.46,2.22,35.82,12.78c2.38,3.43,6.3,5.47,10.47,5.47
	c1.93,0,3.87-0.45,5.61-1.3c10.83-5.31,20.609-8.24,27.529-8.24c2.21,0,4.051,0.31,5.521,0.93c13.97,5.77,14.689,15.57,14.92,19.38
	c0.02,1.63,0.07,3.37,0.13,5.18l0.01,0.34c0.091,2.91,0.181,5.92,0.15,9.08c-0.06,6.3-0.62,11.64-1.75,16.8
	c-1.24,5.6-3.13,10.83-5.78,16C236.03,126.13,214.11,140.54,207.68,144.38z"/>
<path fill="#FFFFFF" d="M138.044,144.58c-3.289,0-6.576-1.264-9.071-3.787c-12.018-12.155-29.1-49.509-29.457-69.636
	c-0.125-7.043,5.484-12.855,12.527-12.98c7.059-0.134,12.855,5.484,12.98,12.528c0.227,12.806,14.287,44.258,22.09,52.15
	c4.953,5.01,4.907,13.086-0.102,18.04C144.526,143.353,141.284,144.58,138.044,144.58z"/>
<path fill="#FFFFFF" d="M173.28,144.58c-3.241,0-6.482-1.227-8.969-3.685c-5.01-4.954-5.055-13.03-0.102-18.04
	c7.803-7.892,21.862-39.344,22.09-52.15c0.125-7.044,5.949-12.692,12.98-12.528c7.044,0.125,12.652,5.937,12.527,12.98
	c-0.357,20.127-17.439,57.482-29.457,69.636C179.856,143.315,176.568,144.58,173.28,144.58z"/>
</svg>
