<?xml version="1.0" encoding="UTF-8" standalone="no"?>
<!-- Created with Inkscape (http://www.inkscape.org/) -->

<svg
   xmlns:dc="http://purl.org/dc/elements/1.1/"
   xmlns:cc="http://creativecommons.org/ns#"
   xmlns:rdf="http://www.w3.org/1999/02/22-rdf-syntax-ns#"
   xmlns:svg="http://www.w3.org/2000/svg"
   xmlns="http://www.w3.org/2000/svg"
   version="1.1"
   width="640"
   height="640"
   id="svg3067"
   xml:space="preserve"><metadata
     id="metadata3073"><rdf:RDF><cc:Work
         rdf:about=""><dc:format>image/svg+xml</dc:format><dc:type
           rdf:resource="http://purl.org/dc/dcmitype/StillImage" /><dc:title></dc:title></cc:Work></rdf:RDF></metadata><defs
     id="defs3071"><clipPath
       id="clipPath3081"><path
         d="M 0,512 512,512 512,0 0,0 0,512 z"
         id="path3083" /></clipPath></defs><g
     transform="matrix(1.25,0,0,-1.25,0,640)"
     id="g3075"><g
       id="g3077"><g
         clip-path="url(#clipPath3081)"
         id="g3079"><g
           transform="translate(438.9009,85)"
           id="g3085"><path
             d="m 0,0 -367.011,0 c -3.128,0 -7.89,4.477 -7.89,10 0,5.523 4.762,10 7.89,10 L 0,20 C 3.128,20 9.099,15.523 9.099,10 9.099,4.477 3.128,0 0,0"
             id="path3087"
             style="fill:#ffffff;fill-opacity:1;fill-rule:nonzero;stroke:none" /></g><g
           transform="translate(407.0005,73.7383)"
           id="g3089"><path
             d="m 0,0 0,365.464 c 0,3.128 4.474,8.797 9.999,8.797 5.522,0 10.001,-5.669 10.001,-8.797 L 20,0 C 20,-3.128 15.521,-9.738 9.999,-9.738 4.474,-9.738 0,-3.128 0,0"
             id="path3091"
             style="fill:#ffffff;fill-opacity:1;fill-rule:nonzero;stroke:none" /></g><g
           transform="translate(382.9399,392.0796)"
           id="g3093"><path
             d="m 0,0 c 0,-8.6 -6.63,-15.59 -14.78,-15.59 -45.64,0 -64.74,-44.49 -83.22,-87.51 -6.67,-15.55 -12.979,-30.23 -20.479,-41.24 -9.241,-13.56 -19.581,-20.15 -31.601,-20.15 -21.18,0 -34.14,10.72 -44.55,19.34 -9.53,7.88 -16.41,13.58 -29.2,13.58 -33.2,0 -59.34,-57.88 -66.6,-80.18 -2.04,-6.3 -7.66,-10.541 -13.99,-10.541 -1.78,0 -3.52,0.331 -5.19,0.991 -7.53,2.97 -11.4,11.6 -8.8,19.64 0.87,2.69 8.96,27.06 24.11,51.24 20.52,32.73 44.88,50.03 70.47,50.03 23.01,0 36.57,-11.22 47.46,-20.23 8.9,-7.37 15.34,-12.69 26.29,-12.69 0.36,0 3.7,0.31 10.05,11.06 4.97,8.41 9.89,19.88 15.11,32.03 9.12,21.25 20.48,47.69 37.191,68.47 C -67.53,3.38 -43.67,15.59 -14.78,15.59 -6.63,15.59 0,8.6 0,0"
             id="path3095"
             style="fill:#ffffff;fill-opacity:1;fill-rule:nonzero;stroke:none" /></g><g
           transform="translate(179.0024,126.1875)"
           id="g3097"><path
             d="m 0,0 c -2.348,0 -4.252,1.903 -4.252,4.252 l 0,95.361 c 0,2.35 1.904,4.252 4.252,4.252 2.348,0 4.252,-1.902 4.252,-4.252 l 0,-95.361 C 4.252,1.903 2.348,0 0,0"
             id="path3099"
             style="fill:#ffffff;fill-opacity:1;fill-rule:nonzero;stroke:none" /></g><g
           transform="translate(296.0015,126.1875)"
           id="g3101"><path
             d="m 0,0 c -2.349,0 -4.252,1.903 -4.252,4.252 l 0,124.742 c 0,2.348 1.903,4.252 4.252,4.252 2.349,0 4.252,-1.904 4.252,-4.252 l 0,-124.742 C 4.252,1.903 2.349,0 0,0"
             id="path3103"
             style="fill:#ffffff;fill-opacity:1;fill-rule:nonzero;stroke:none" /></g><g
           transform="translate(179.0024,310.208)"
           id="g3105"><path
             d="m 0,0 c -2.348,0 -4.252,1.904 -4.252,4.252 l 0,129.581 c 0,2.349 1.904,4.252 4.252,4.252 2.348,0 4.252,-1.903 4.252,-4.252 l 0,-129.581 C 4.252,1.904 2.348,0 0,0"
             id="path3107"
             style="fill:#ffffff;fill-opacity:1;fill-rule:nonzero;stroke:none" /></g><g
           transform="translate(296.0015,405.5435)"
           id="g3109"><path
             d="m 0,0 c -2.349,0 -4.252,1.904 -4.252,4.252 l 0,34.246 c 0,2.348 1.903,4.252 4.252,4.252 2.349,0 4.252,-1.904 4.252,-4.252 l 0,-34.246 C 4.252,1.904 2.349,0 0,0"
             id="path3111"
             style="fill:#ffffff;fill-opacity:1;fill-rule:nonzero;stroke:none" /></g><g
           transform="translate(378.5913,211.748)"
           id="g3113"><path
             d="m 0,0 -98.454,0 c -2.349,0 -4.252,1.903 -4.252,4.252 0,2.349 1.903,4.252 4.252,4.252 L 0,8.504 C 2.349,8.504 4.252,6.601 4.252,4.252 4.252,1.903 2.349,0 0,0"
             id="path3115"
             style="fill:#ffffff;fill-opacity:1;fill-rule:nonzero;stroke:none" /></g><g
           transform="translate(239.8032,328.7466)"
           id="g3117"><path
             d="m 0,0 -117.913,0 c -2.348,0 -4.252,1.904 -4.252,4.252 0,2.348 1.904,4.252 4.252,4.252 L 0,8.504 C 2.349,8.504 4.252,6.6 4.252,4.252 4.252,1.904 2.349,0 0,0"
             id="path3119"
             style="fill:#ffffff;fill-opacity:1;fill-rule:nonzero;stroke:none" /></g><g
           transform="translate(378.5913,328.7466)"
           id="g3121"><path
             d="m 0,0 -37.501,0 c -2.349,0 -4.252,1.904 -4.252,4.252 0,2.348 1.903,4.252 4.252,4.252 L 0,8.504 C 2.349,8.504 4.252,6.6 4.252,4.252 4.252,1.904 2.349,0 0,0"
             id="path3123"
             style="fill:#ffffff;fill-opacity:1;fill-rule:nonzero;stroke:none" /></g><g
           transform="translate(190.4468,211.748)"
           id="g3125"><path
             d="m 0,0 -56.419,0 c -2.349,0 -4.252,1.903 -4.252,4.252 0,2.349 1.903,4.252 4.252,4.252 L 0,8.504 C 2.349,8.504 4.252,6.601 4.252,4.252 4.252,1.903 2.349,0 0,0"
             id="path3127"
             style="fill:#ffffff;fill-opacity:1;fill-rule:nonzero;stroke:none" /></g></g></g></g></svg>