<?xml version="1.0" encoding="UTF-8" standalone="no"?>
<!-- Created with Inkscape (http://www.inkscape.org/) -->

<svg
   xmlns:dc="http://purl.org/dc/elements/1.1/"
   xmlns:cc="http://creativecommons.org/ns#"
   xmlns:rdf="http://www.w3.org/1999/02/22-rdf-syntax-ns#"
   xmlns:svg="http://www.w3.org/2000/svg"
   xmlns="http://www.w3.org/2000/svg"
   version="1.1"
   width="640"
   height="640"
   id="svg3025"
   xml:space="preserve"><metadata
     id="metadata3031"><rdf:RDF><cc:Work
         rdf:about=""><dc:format>image/svg+xml</dc:format><dc:type
           rdf:resource="http://purl.org/dc/dcmitype/StillImage" /><dc:title></dc:title></cc:Work></rdf:RDF></metadata><defs
     id="defs3029"><clipPath
       id="clipPath3039"><path
         d="M 0,512 512,512 512,0 0,0 0,512 z"
         id="path3041" /></clipPath></defs><g
     transform="matrix(1.25,0,0,-1.25,0,640)"
     id="g3033"><g
       id="g3035"><g
         clip-path="url(#clipPath3039)"
         id="g3037"><g
           transform="translate(188.6523,404.4263)"
           id="g3043"><path
             d="m 0,0 c -3.069,0 -5.889,-0.805 -8.155,-2.326 -5.005,-3.368 -7.509,-10.033 -6.23,-16.586 1.095,-5.643 4.045,-9.398 7.168,-13.373 2.104,-2.677 4.279,-5.446 6.199,-9.086 l 0.172,-0.327 0.345,-0.136 c 4.319,-1.707 14.108,-3.286 56.12,-3.286 l 0.254,0 c 1.822,0.044 44.154,1.096 52.609,2.812 l 0.663,0.135 0.121,0.665 c 0.68,3.711 2.981,6.844 5.417,10.161 2.502,3.407 5.089,6.929 6.406,11.546 1.259,4.39 1.104,12.736 -4.672,16.434 -2.054,1.317 -4.956,2.043 -8.167,2.043 -3.934,0 -7.894,-1.09 -10.333,-2.845 -3.855,-2.764 -8.209,-4.414 -11.647,-4.414 -1.345,0 -2.554,0.247 -3.593,0.735 -3.571,1.679 -6.057,6.426 -6.822,13.023 -0.673,5.785 -2.843,10.292 -6.449,13.397 -2.314,1.988 -6.491,4.358 -13.253,4.358 -1.291,0 -2.639,-0.09 -4.007,-0.266 C 44.486,21.665 35.872,16.646 34.668,5.556 33.793,-2.507 30.854,-7.151 25.417,-9.058 24.53,-9.369 23.593,-9.527 22.634,-9.527 c -4.392,0 -8.682,3.212 -11.815,5.557 C 9.775,-3.188 8.873,-2.513 8.106,-2.06 5.895,-0.751 2.94,0 0,0 m 146.279,-72.345 c -4.797,0 -9.791,-1.179 -14.062,-3.32 l -0.593,-0.298 0.043,-0.663 c 0.542,-8.063 0.67,-24.41 -0.134,-40.054 -0.544,-10.632 -1.706,-20.823 -2.753,-29.541 l -0.17,-1.42 1.392,0.328 c 6.911,1.626 20.53,8.254 24.288,11.82 4.629,4.388 14.265,13.52 16.203,26.662 1.574,10.706 -0.269,20.56 -4.93,26.36 -2.81,3.49 -8.799,9.436 -17.353,10.057 -0.625,0.045 -1.274,0.069 -1.931,0.069 m -146.133,8.97 c -0.321,-10.806 -0.92,-37.82 0.455,-55.242 1.919,-24.154 8.838,-62.755 13.879,-71.701 l 0.127,-0.219 c 2.965,-4.888 18.297,-8.038 39.072,-8.038 0.582,0 1.172,0.003 1.765,0.008 19.801,0.173 42.078,2.407 45.223,8.16 1.211,2.219 9.046,39.644 10.633,72.002 1.492,30.372 -0.064,46.409 -0.728,53.257 -0.063,0.648 -0.117,1.21 -0.16,1.691 0.004,0.005 -0.005,0.102 -0.018,0.202 l -0.07,1.099 -1.095,-0.1 c -1.62,-0.262 -19.573,-1.992 -25.925,-2.175 -9.943,-0.254 -18.918,-0.284 -24.803,-0.284 -3.254,0 -6.355,0.01 -9.299,0.02 -2.664,0.008 -5.201,0.016 -7.607,0.016 -10.811,0 -35.726,2.186 -40.291,2.842 l -1.176,0.169 0.034,-1.165 -0.016,-0.542 z m 56.882,-155.77 c -16.452,0.022 -31.099,1.151 -39.183,3.02 -6.804,1.573 -17.087,3.95 -20.605,12.115 -6.28,14.553 -12.425,43.618 -15.293,72.323 -1.623,16.211 -1.72,34.221 -1.806,50.111 -0.041,7.687 -0.08,14.947 -0.298,21 -0.024,0.677 -0.03,1.489 -0.036,2.371 -0.017,2.139 -0.037,4.8 -0.322,6.934 -0.318,2.354 -3.488,6.936 -6.435,11.045 -0.49,0.684 -0.914,1.275 -1.035,1.476 -3.086,5.472 -7.332,13.001 -8.094,25.807 -0.686,11.501 2.99,20.54 11.239,27.635 4.866,4.188 11.774,6.494 19.452,6.494 6.651,0 13.457,-1.754 18.206,-4.693 1.262,-0.743 2.52,-1.683 3.867,-2.889 l 1.512,-1.354 0.152,2.024 c 0.063,0.845 0.158,1.731 0.289,2.708 1.786,12.815 13.421,22.146 30.363,24.346 2.607,0.334 5.212,0.503 7.742,0.503 7.208,0 13.554,-1.331 18.351,-3.848 5.998,-3.16 10.093,-6.937 12.884,-11.882 1.749,-3.096 2.935,-6.501 3.733,-10.715 l 0.24,-1.263 1.165,0.543 c 0.243,0.112 0.475,0.221 0.692,0.31 3.912,1.754 9.254,2.754 14.683,2.754 6.807,0 13.244,-1.524 18.125,-4.291 3.489,-1.955 6.652,-5.08 9.151,-9.04 3.457,-5.485 4.858,-10.646 4.993,-18.405 0.119,-6.943 -1.573,-13.765 -5.174,-20.855 -0.536,-1.055 -1.169,-2.092 -1.839,-3.19 -2.148,-3.518 -4.581,-7.505 -4.268,-13.219 0.217,-1.899 0.393,-3.712 0.559,-5.764 l 0.11,-1.352 1.258,0.504 c 5.523,2.21 10.6,3.285 15.523,3.285 3.117,0 6.291,-0.431 9.703,-1.317 8.112,-2.135 17.095,-7.962 21.843,-14.171 6.037,-7.861 9.528,-16.71 10.099,-25.595 1.228,-19.184 -4.194,-30.828 -10.236,-40.553 -5.513,-8.866 -17.775,-18.207 -24.721,-22.009 -7.362,-3.988 -15.081,-7.059 -26.642,-10.599 l -0.622,-0.191 -0.078,-0.645 c -2.983,-24.629 -8.888,-35.652 -10.306,-37.255 -2.465,-2.83 -8.277,-4.739 -12.947,-6.274 -1.013,-0.332 -1.976,-0.649 -2.85,-0.956 -7.858,-2.76 -29.925,-4.983 -42.957,-4.983 l -0.187,0 z"
             id="path3045"
             style="fill:#ffffff;fill-opacity:1;fill-rule:nonzero;stroke:none" /></g><g
           transform="translate(75.9453,65.4277)"
           id="g3047"><path
             d="m 0,0 c -5.792,0 -10.504,4.475 -10.504,9.976 l 0,76.536 c 0,5.501 4.712,9.975 10.504,9.975 l 95.142,0 0,5.771 c 0,5.684 4.516,9.971 10.504,9.971 5.792,0 10.504,-4.473 10.504,-9.971 l 0,-15.746 c 0,-5.501 -4.712,-9.976 -10.504,-9.976 l -95.142,0 0,-66.56 C 10.504,4.475 5.792,0 0,0"
             id="path3049"
             style="fill:#ffffff;fill-opacity:1;fill-rule:nonzero;stroke:none" /></g><g
           transform="translate(435.4956,65.4277)"
           id="g3051"><path
             d="m 0,0 c -5.792,0 -10.504,4.475 -10.504,9.976 l 0,43.805 -93.333,0 c -5.792,0 -10.504,4.475 -10.504,9.976 l 0,66.239 c 0,5.407 4.811,9.976 10.504,9.976 5.693,0 10.504,-4.569 10.504,-9.976 l 0,-56.263 93.333,0 c 5.792,0 10.504,-4.475 10.504,-9.976 l 0,-53.781 C 10.504,4.475 5.792,0 0,0"
             id="path3053"
             style="fill:#ffffff;fill-opacity:1;fill-rule:nonzero;stroke:none" /></g><g
           transform="translate(399.0308,155.8154)"
           id="g3055"><path
             d="m 0,0 c -4.727,0 -9.234,0.871 -13.398,2.591 -4.139,1.705 -7.815,4.08 -10.927,7.059 -3.104,2.969 -5.58,6.481 -7.361,10.438 -1.787,3.964 -2.693,8.262 -2.693,12.773 0,2.413 0.851,4.451 2.528,6.056 1.677,1.609 3.9,2.46 6.43,2.46 2.509,0 4.664,-0.82 6.407,-2.439 1.712,-1.587 2.617,-3.689 2.617,-6.077 0,-2.233 0.433,-4.335 1.289,-6.247 0.86,-1.922 2.04,-3.606 3.506,-5.009 1.466,-1.401 3.216,-2.529 5.202,-3.352 1.96,-0.813 4.113,-1.225 6.4,-1.225 2.24,0 4.379,0.422 6.356,1.254 2.01,0.844 3.771,1.99 5.234,3.408 1.469,1.42 2.652,3.12 3.517,5.049 0.856,1.915 1.289,3.975 1.289,6.122 0,2.15 -0.433,4.208 -1.289,6.12 -0.862,1.926 -2.044,3.624 -3.516,5.05 -1.466,1.42 -3.227,2.568 -5.234,3.41 C 4.38,48.272 2.241,48.694 0,48.694 c -2.531,0 -4.767,0.862 -6.465,2.492 -1.698,1.626 -2.559,3.651 -2.559,6.021 0,2.419 0.865,4.46 2.571,6.068 1.7,1.603 3.932,2.45 6.453,2.45 1.514,0 2.92,0.277 4.296,0.846 1.405,0.581 2.59,1.345 3.62,2.335 1.029,0.99 1.864,2.172 2.482,3.518 0.615,1.341 0.914,2.719 0.914,4.213 0,1.535 -0.299,2.933 -0.915,4.276 -0.615,1.338 -1.456,2.516 -2.501,3.502 -1.054,0.994 -2.288,1.799 -3.665,2.394 -1.346,0.583 -2.73,0.867 -4.231,0.867 -1.548,0 -2.968,-0.284 -4.342,-0.87 -1.39,-0.593 -2.617,-1.394 -3.643,-2.381 -1.032,-0.99 -1.866,-2.172 -2.48,-3.511 -0.609,-1.328 -0.887,-2.714 -0.848,-4.234 0,-2.337 -0.847,-4.299 -2.593,-5.973 -1.724,-1.65 -3.948,-2.522 -6.431,-2.522 -2.442,0 -4.642,0.872 -6.364,2.522 -1.721,1.647 -2.593,3.642 -2.593,5.93 0,3.882 0.783,7.567 2.329,10.953 1.534,3.364 3.65,6.353 6.284,8.884 2.646,2.536 5.771,4.561 9.286,6.018 3.55,1.467 7.383,2.212 11.395,2.212 4.017,0 7.854,-0.757 11.403,-2.249 3.519,-1.479 6.642,-3.525 9.284,-6.083 2.627,-2.544 4.739,-5.528 6.277,-8.873 1.546,-3.366 2.33,-7.02 2.33,-10.862 0,-6.496 -2.265,-12.442 -6.732,-17.671 l -0.646,-0.757 0.753,-0.649 c 7.769,-6.706 11.709,-15.015 11.709,-24.699 0,-4.467 -0.906,-8.744 -2.693,-12.71 C 29.902,16.191 27.426,12.68 24.324,9.712 21.22,6.74 17.547,4.356 13.406,2.627 9.235,0.884 4.725,0 0,0"
             id="path3057"
             style="fill:#ffffff;fill-opacity:1;fill-rule:nonzero;stroke:none" /></g><g
           transform="translate(255.9214,222.8115)"
           id="g3059"><path
             d="m 0,0 c -2.697,0 -5.131,1.01 -7.04,2.92 -1.909,1.909 -2.918,4.343 -2.918,7.038 l 0,68.261 -1.483,-0.817 c -1.344,-0.741 -2.556,-1.348 -3.704,-1.855 -4.641,-2.051 -7.857,-3.185 -10.641,-4.105 -1.818,-0.566 -3.536,-0.856 -5.089,-0.856 -4.063,0 -7.224,1.938 -8.899,5.459 -1.264,2.656 -1.406,5.525 -0.398,8.079 1.003,2.541 3.083,4.543 5.856,5.635 1.31,0.489 8.007,3.012 12.664,5.239 2.307,1.103 4.199,2.335 6.028,3.528 1.567,1.022 3.172,2.069 4.92,2.946 3.058,1.536 5.972,2.282 8.908,2.282 0.923,0 1.861,-0.077 2.786,-0.229 3.501,-0.575 4.643,-1.6 6.216,-3.224 1.844,-1.909 2.818,-4.354 2.818,-7.071 l 0,-83.272 C 10.024,7.265 9.015,4.83 7.105,2.92 5.196,1.01 2.739,0 0,0"
             id="path3061"
             style="fill:#ffffff;fill-opacity:1;fill-rule:nonzero;stroke:none" /></g><g
           transform="translate(93.6938,178.6572)"
           id="g3063"><path
             d="m 0,0 c -1.256,0 -2.449,0.217 -3.546,0.645 -1.096,0.425 -2.061,1.033 -2.871,1.808 -0.789,0.754 -1.415,1.634 -1.86,2.613 -0.452,0.989 -0.68,2.042 -0.68,3.133 0,2.284 0.817,4.214 2.429,5.736 l 43.394,45.777 c 3.34,3.08 4.951,6.662 4.951,10.968 0,2.058 -0.442,4.032 -1.315,5.864 -0.879,1.849 -2.084,3.486 -3.579,4.869 -1.488,1.374 -3.252,2.482 -5.244,3.292 -1.96,0.795 -4.065,1.198 -6.258,1.198 -2.247,0 -4.381,-0.395 -6.343,-1.174 C 17.092,83.939 15.33,82.852 13.842,81.496 12.354,80.14 11.167,78.52 10.313,76.681 9.458,74.846 9.024,72.826 9.024,70.68 9.024,68.477 8.126,66.482 6.427,64.912 4.683,63.299 2.52,62.48 0,62.48 c -2.441,0 -4.641,0.842 -6.36,2.434 -1.723,1.59 -2.597,3.53 -2.597,5.766 0,4.335 0.918,8.473 2.73,12.3 1.805,3.811 4.292,7.195 7.394,10.061 3.107,2.87 6.783,5.164 10.925,6.817 4.166,1.662 8.651,2.504 13.329,2.504 4.685,0 9.175,-0.866 13.347,-2.573 4.133,-1.693 7.803,-4.005 10.907,-6.872 3.097,-2.861 5.585,-6.245 7.393,-10.06 1.812,-3.828 2.731,-7.925 2.731,-12.177 0,-4.33 -0.871,-8.422 -2.588,-12.161 -1.702,-3.704 -4.188,-7.11 -7.388,-10.125 l -29.79,-31.935 30.742,0 c 2.486,0 4.712,-0.855 6.437,-2.471 1.692,-1.59 2.587,-3.592 2.587,-5.789 0,-2.203 -0.898,-4.198 -2.598,-5.767 C 55.481,0.841 53.259,0 50.775,0 L 0,0 z"
             id="path3065"
             style="fill:#ffffff;fill-opacity:1;fill-rule:nonzero;stroke:none" /></g></g></g></g></svg>