<?xml version="1.0" encoding="UTF-8" standalone="no"?>
<!-- Created with Inkscape (http://www.inkscape.org/) -->

<svg
   xmlns:dc="http://purl.org/dc/elements/1.1/"
   xmlns:cc="http://creativecommons.org/ns#"
   xmlns:rdf="http://www.w3.org/1999/02/22-rdf-syntax-ns#"
   xmlns:svg="http://www.w3.org/2000/svg"
   xmlns="http://www.w3.org/2000/svg"
   version="1.1"
   width="640"
   height="640"
   id="svg2"
   xml:space="preserve"><metadata
     id="metadata8"><rdf:RDF><cc:Work
         rdf:about=""><dc:format>image/svg+xml</dc:format><dc:type
           rdf:resource="http://purl.org/dc/dcmitype/StillImage" /><dc:title></dc:title></cc:Work></rdf:RDF></metadata><defs
     id="defs6"><clipPath
       id="clipPath16"><path
         d="M 0,512 512,512 512,0 0,0 0,512 z"
         id="path18" /></clipPath></defs><g
     transform="matrix(1.25,0,0,-1.25,0,640)"
     id="g10"><g
       id="g12"><g
         clip-path="url(#clipPath16)"
         id="g14"><g
           transform="translate(391.9575,226.5801)"
           id="g20"><path
             d="m 0,0 c -2.731,-18.533 -16.312,-31.525 -23.194,-38.046 -5.171,-4.903 -24.642,-14.5 -34.757,-16.879 1.575,13.111 3.242,27.913 4.024,43.189 1.213,23.544 0.942,47.511 0.197,58.594 7.576,3.8 16.007,5.073 22.567,4.592 C -19.552,50.609 -11.132,42.6 -6.882,37.322 -0.961,29.951 2.418,16.43 0,0 m -72.021,130.049 c -3.75,-13.149 -15.203,-20.472 -17.278,-31.8 -12.347,-2.506 -76.445,-4.073 -76.445,-4.073 -64.109,-0.01 -76.337,2.574 -81.693,4.69 -7.137,13.53 -16.8,19.19 -19.355,32.357 -1.675,8.587 1.34,17.907 8.468,22.705 6.941,4.66 16.673,3.593 22.165,0.342 5.072,-2.996 15.774,-14.079 26.474,-10.328 10.663,3.74 13.521,13.872 14.46,22.537 1.695,15.587 13.884,22.313 24.232,23.664 10.936,1.41 19.004,-1.302 24.036,-5.629 5.336,-4.592 8.049,-11.191 8.91,-18.602 1.008,-8.684 4.347,-17.124 10.779,-20.149 6.922,-3.251 16.782,0.538 23.705,5.502 5.999,4.318 18.532,5.492 25.345,1.126 7.324,-4.69 8.118,-15.645 6.197,-22.342 M -86.353,-14.106 c -2.377,-48.455 -13.96,-101.882 -15.332,-104.398 -3.758,-6.872 -32.025,-10.857 -64.696,-11.142 -33.64,-0.283 -54.66,4.995 -58.293,10.985 l -0.176,0.305 c -6.941,12.316 -17.153,67.388 -20.061,103.983 -2.389,30.273 -0.626,80.92 -0.636,81.263 6.265,-0.901 42.676,-4.161 58.978,-4.161 16.311,0 36.725,-0.254 60.878,0.362 9.193,0.265 35.471,2.781 38.005,3.191 0.012,-0.156 0.04,-0.303 0.04,-0.44 0.716,-8.048 3.673,-31.506 1.293,-79.948 M 29.274,19.062 c -0.941,14.647 -6.921,27.571 -15.028,38.125 -7.501,9.811 -21.042,18.142 -32.651,21.197 -11.083,2.878 -22.54,3.143 -37.705,-2.927 -0.215,2.652 -0.469,5.375 -0.814,8.37 -0.568,10.359 5.375,16.547 8.754,23.194 4.219,8.312 7.912,18.847 7.704,31.105 -0.194,11.073 -2.064,18.964 -7.507,27.6 -3.733,5.913 -8.449,10.642 -13.864,13.677 -15.011,8.508 -36.775,7.862 -49.13,2.32 -0.333,-0.137 -0.693,-0.303 -1.067,-0.479 -1.204,6.354 -3.026,11.504 -5.611,16.076 -4.198,7.44 -10.337,13.138 -19.383,17.907 -9.782,5.13 -23.939,6.951 -38.928,5.031 -25.407,-3.299 -42.843,-17.378 -45.545,-36.763 -0.167,-1.233 -0.324,-2.604 -0.431,-4.033 -1.88,1.684 -3.829,3.182 -5.845,4.366 -13.922,8.616 -40.494,11.142 -56.648,-2.761 -13.374,-11.504 -17.839,-25.73 -16.898,-41.503 1.095,-18.444 7.01,-29.439 12.012,-38.31 0.969,-1.605 10.124,-13.432 10.701,-17.701 0.568,-4.268 0.391,-10.006 0.509,-13.433 0.96,-26.66 -0.47,-68.406 3.074,-103.818 3.985,-39.866 12.679,-83.347 22.421,-105.924 5.356,-12.434 20.383,-16.047 31.065,-18.515 10.672,-2.467 31.301,-4.406 57.48,-4.443 18.935,-0.031 51.655,3.219 63.415,7.351 7.332,2.576 19,5.612 23.653,10.956 2.309,2.614 11.044,19.258 15.39,55.131 16.653,5.1 28.127,9.615 39.133,15.578 10.054,5.501 28.265,19.208 36.597,32.61 8.332,13.414 17.006,30.978 15.147,60.016"
             id="path22"
             style="fill:#ffffff;fill-opacity:1;fill-rule:nonzero;stroke:none" /></g></g></g></g></svg>