<?xml version="1.0" encoding="utf-8"?>
<!-- Generator: Adobe Illustrator 15.0.0, SVG Export Plug-In . SVG Version: 6.00 Build 0)  -->
<!DOCTYPE svg PUBLIC "-//W3C//DTD SVG 1.0//EN" "http://www.w3.org/TR/2001/REC-SVG-20010904/DTD/svg10.dtd">
<svg version="1.0" id="Ebene_1" xmlns="http://www.w3.org/2000/svg" xmlns:xlink="http://www.w3.org/1999/xlink" x="0px" y="0px"
	 width="364px" height="415px" viewBox="0 0 364 415" enable-background="new 0 0 364 415" xml:space="preserve">
<path fill="#ED71A8" d="M350.64,218.64c-0.96-14.959-7.069-28.16-15.35-38.939c-7.66-10.02-21.49-18.53-33.35-21.65
	c-11.32-2.94-23.021-3.21-38.511,2.99c-0.22-2.71-0.479-5.49-0.83-8.55c-0.58-10.58,5.49-16.9,8.94-23.69
	c4.31-8.49,8.08-19.25,7.87-31.77c-0.2-11.31-2.11-19.37-7.67-28.19c-3.811-6.04-8.63-10.87-14.16-13.97
	c-15.33-8.69-37.561-8.03-50.18-2.37c-0.341,0.14-0.71,0.31-1.091,0.49c-1.229-6.49-3.09-11.75-5.729-16.42
	c-4.29-7.6-10.561-13.42-19.8-18.29c-9.99-5.24-24.45-7.1-39.76-5.14c-25.95,3.37-43.76,17.75-46.52,37.55
	c-0.17,1.26-0.33,2.66-0.44,4.12c-1.92-1.72-3.91-3.25-5.97-4.46c-14.22-8.8-41.36-11.38-57.86,2.82
	C16.57,64.92,12.01,79.45,12.97,95.56c1.12,18.84,7.16,30.07,12.27,39.13c0.99,1.64,10.34,13.72,10.93,18.08
	c0.58,4.36,0.4,10.22,0.52,13.72c0.98,27.23-0.48,69.87,3.14,106.04c4.07,40.72,12.95,85.13,22.9,108.189
	c5.47,12.7,20.82,16.391,31.73,18.91c10.9,2.521,31.97,4.5,58.71,4.54c19.34,0.03,52.76-3.29,64.771-7.51
	c7.489-2.63,19.409-5.73,24.159-11.19c2.36-2.67,11.28-19.67,15.721-56.31c17.01-5.21,28.729-9.82,39.97-15.91
	c10.27-5.62,28.87-19.62,37.38-33.31C343.68,266.24,352.54,248.3,350.64,218.64z M232.54,252.52
	c-2.43,49.49-14.26,104.061-15.66,106.631c-3.84,7.02-32.71,11.09-66.08,11.38c-34.36,0.29-55.83-5.101-59.54-11.221L91.08,359
	c-7.09-12.58-17.52-68.83-20.49-106.21c-2.44-30.92-0.64-82.65-0.65-83c6.4,0.92,43.59,4.25,60.24,4.25
	c16.66,0,37.51,0.26,62.18-0.37c9.39-0.27,36.229-2.84,38.819-3.26c0.011,0.16,0.04,0.31,0.04,0.45
	C231.95,179.08,234.97,203.04,232.54,252.52z M247.18,105.28c-3.83,13.43-15.529,20.91-17.649,32.48
	c-12.61,2.56-78.08,4.16-78.08,4.16c-65.48,0.01-77.97-2.63-83.44-4.79c-7.29-13.82-17.16-19.6-19.77-33.05
	c-1.71-8.77,1.37-18.29,8.65-23.19c7.09-4.76,17.03-3.67,22.64-0.35c5.18,3.06,16.11,14.38,27.04,10.55
	c10.89-3.82,13.81-14.17,14.77-23.02c1.73-15.92,14.18-22.79,24.75-24.17c11.17-1.44,19.41,1.33,24.55,5.75
	c5.45,4.69,8.221,11.43,9.101,19c1.029,8.87,4.439,17.49,11.01,20.58c7.07,3.32,17.14-0.55,24.21-5.62
	c6.13-4.41,18.93-5.61,25.89-1.15C248.33,87.25,249.14,98.44,247.18,105.28z M320.74,238.11c-2.79,18.93-16.66,32.199-23.69,38.859
	c-5.28,5.011-25.17,14.811-35.5,17.24c1.61-13.39,3.311-28.51,4.11-44.11c1.24-24.05,0.96-48.53,0.2-59.85
	c7.739-3.88,16.35-5.18,23.05-4.69c11.859,0.86,20.46,9.04,24.8,14.43C319.76,207.52,323.21,221.33,320.74,238.11z"/>
<path display="none" fill="#ED71A8" d="M357.71,218.19c-0.96-14.94-6.77-29.75-16.79-42.791c-8.25-10.8-23.189-20.52-37.2-24.21
	c-5.8-1.5-11.229-2.24-16.609-2.24c-5.7,0-11.471,0.82-17.46,2.49c-0.101-5.5,2.34-9.5,5.14-14.09c1.04-1.71,2.12-3.47,3.07-5.34
	c5.93-11.68,8.83-23.48,8.64-35.11c-0.24-13.11-2.77-22.34-8.77-31.84c-4.48-7.1-10.25-12.76-16.65-16.35
	c-8.55-4.85-19.64-7.51-31.24-7.51c-6.57,0-12.95,0.84-18.57,2.41c-1.199-3.81-2.689-7.3-4.52-10.52
	c-5-8.87-12.21-15.57-22.68-21.09c-8.37-4.39-19.2-6.71-31.32-6.71c-4.14,0-8.38,0.28-12.64,0.82C113.91,9.51,95,23.27,89.03,42.73
	c-8.15-4.27-18.47-6.68-28.85-6.68c-13.49,0-25.77,4.17-34.57,11.75C11.35,60.06,4.72,76.27,5.9,95.98
	c1.25,21.06,8.42,33.78,13.17,42.19l0.1,0.18c0.34,0.57,0.84,1.26,1.92,2.77c4.83,6.74,7.55,11.03,8.08,12.76
	c0.33,2.64,0.36,6.21,0.38,9.09c0.01,1.4,0.02,2.69,0.06,3.78c0.32,8.88,0.38,19.63,0.44,31.02c0.13,23.86,0.27,50.91,2.73,75.47
	C37.2,317.48,46.4,360.77,56.22,383.52c6.96,16.16,25.54,20.45,36.64,23.011c12.63,2.92,35.17,4.689,60.3,4.729h0.27
	c18.08,0,53.11-3.09,66.86-7.91c1.25-0.439,2.63-0.899,4.08-1.369c7.96-2.62,17.87-5.87,23.04-11.82
	c3.14-3.55,12.03-20.29,16.859-55.59c15.44-4.9,26.36-9.38,36.921-15.101c10.399-5.7,30.46-20.439,40-35.79
	C350.48,268.73,359.7,249.25,357.71,218.19z M329.15,276.2c-7.591,12.21-25.23,25.62-34.74,30.819
	c-10.62,5.75-21.82,10.2-38.66,15.36l-4.41,1.351l-0.55,4.579c-4.13,34.04-12.14,50.101-14.04,52.511
	c-2.65,3.04-11.17,5.84-16.8,7.689c-1.55,0.51-3.021,0.99-4.36,1.46c-10.899,3.83-43.29,7.11-62.16,7.11h-0.25
	c-28.41-0.04-48.13-2.28-57.13-4.36c-11.96-2.76-23.01-5.97-26.81-14.81c-9.15-21.2-18.14-63.83-22.36-106.09
	c-2.39-23.88-2.53-50.58-2.66-74.13c-0.06-11.49-0.12-22.35-0.45-31.44c-0.03-0.97-0.04-2.13-0.05-3.39
	c-0.02-3.34-0.06-7.5-0.53-11.04c-0.59-4.35-4.17-10.02-10.58-18.96c-0.53-0.73-1.11-1.55-1.28-1.8
	c-4.34-7.7-10.24-18.24-11.29-35.92c-0.92-15.49,3.79-27.11,14.81-36.6c6.24-5.36,15.23-8.32,25.33-8.32
	c8.91,0,17.95,2.3,24.18,6.16l0.14,0.08c1.51,0.89,3.13,2.11,4.83,3.63l10.72,9.6l1.08-14.35c0.08-1.15,0.22-2.39,0.39-3.67
	c2.3-16.49,17.78-28.56,40.4-31.5c3.65-0.47,7.29-0.71,10.83-0.71c9.69,0,18.48,1.81,24.73,5.09c7.939,4.19,13.319,9.11,16.93,15.51
	c2.3,4.06,3.859,8.59,4.939,14.25l1.7,9.01l8.29-3.92c0.26-0.13,0.521-0.25,0.76-0.35l0.2-0.08c5.09-2.29,12.22-3.6,19.54-3.6
	c9.19,0,17.8,2.01,24.28,5.68c4.38,2.46,8.399,6.46,11.63,11.57c4.6,7.31,6.39,13.96,6.57,24.53c0.16,9.41-2.16,18.71-7.101,28.44
	c-0.7,1.38-1.59,2.83-2.529,4.37c-3.44,5.64-7.73,12.67-7.171,22.92l0.04,0.42c0.311,2.71,0.57,5.35,0.811,8.31l0.77,9.58l8.92-3.57
	c7.561-3.02,14.44-4.49,21.051-4.49c4.159,0,8.43,0.58,13.029,1.77c10.99,2.9,23.13,10.75,29.53,19.12
	c8.43,10.98,13.11,22.78,13.9,35.07C345.3,246.1,337.66,262.5,329.15,276.2z M238.51,172.71c-0.08-0.89-0.16-1.67-0.22-2.34
	c-0.01-0.18-0.03-0.36-0.05-0.55l-0.54-7.61l-7.65,1.2c-2.43,0.39-28.78,2.91-37.87,3.18c-11.399,0.29-22.77,0.42-36.87,0.42
	c-4.83,0-9.43-0.02-13.8-0.03c-3.97-0.01-7.75-0.03-11.33-0.03c-16.62,0-53.54-3.36-59.23-4.17l-8.34-1.2l0.24,8.23l-0.02,0.63
	c-0.48,16.19-1.37,56.68,0.7,82.91c2.96,37.311,13.41,94.99,21.42,109.21l0.25,0.421c8.01,13.22,46.7,14.649,62.96,14.649
	c0.89,0,1.79-0.01,2.7-0.01c17.4-0.15,33.02-1.28,45.19-3.26c20.03-3.261,24.98-8.021,27.05-11.82
	c2.48-4.54,14.11-60.59,16.521-109.67C241.86,207.21,239.51,183.03,238.51,172.71z M225.46,252.17
	c-2.21,45.01-12.42,95.08-14.86,103.45c-3.54,2.6-21.67,7.49-59.859,7.82c-0.87,0.01-1.73,0.02-2.58,0.02
	c-32.9,0-48.41-5.31-50.91-7.94c-6.19-11-16.63-66.02-19.6-103.289c-1.77-22.421-1.3-55.911-0.84-74.541
	c13.86,1.37,40.05,3.44,53.37,3.44c3.57,0,7.33,0.01,11.28,0.02c4.39,0.02,9,0.03,13.85,0.03c14.22,0,25.709-0.13,37.25-0.43
	c6.71-0.19,22.601-1.56,32.24-2.51C225.86,189.98,227.39,212.86,225.46,252.17z M151.451,149.006h-0.381
	c-66.693,0-79.188-2.728-85.664-5.285l-2.441-0.964l-1.224-2.321c-2.625-4.975-5.706-8.897-8.686-12.69
	c-4.859-6.185-9.883-12.579-11.773-22.316c-2.328-11.935,2.354-24.162,11.65-30.419c4.308-2.893,9.588-4.419,15.277-4.419
	c5.354,0,10.795,1.403,14.929,3.849c1.401,0.827,2.857,1.917,4.543,3.18c4.038,3.023,9.568,7.164,14.249,7.164
	c0.809,0,1.559-0.125,2.295-0.384c5.905-2.071,9.011-7.344,10.068-17.096c2.148-19.768,17.977-28.749,30.878-30.433
	c2.284-0.294,4.532-0.443,6.693-0.443c11.794,0,19.232,4.267,23.396,7.847c6.475,5.572,10.35,13.496,11.519,23.555
	c0.886,7.634,3.563,13.375,6.986,14.985c0.795,0.373,1.796,0.563,2.972,0.563c3.938,0,9.337-2.118,14.093-5.529
	c4.599-3.308,11.575-5.287,18.653-5.287c4.133,0,10.122,0.682,15.189,3.929c10.056,6.438,12.3,20.337,9.319,30.739
	c-2.235,7.839-6.581,13.754-10.415,18.974c-3.378,4.599-6.296,8.57-7.076,12.832l-0.864,4.714l-4.696,0.953
	c-12.852,2.609-72.552,4.134-79.317,4.3L151.451,149.006z M72.85,131.252c6.547,1.704,23.641,3.582,78.221,3.582h0.293
	c16.263-0.399,57.312-1.714,72.619-3.423c1.938-5.107,5.095-9.406,8.173-13.596c3.43-4.67,6.67-9.081,8.21-14.478
	c1.265-4.416,0.803-12.258-3.337-14.909c-1.677-1.074-4.427-1.69-7.545-1.69c-4.653,0-8.569,1.318-10.385,2.625
	c-3.44,2.467-12.487,8.19-22.361,8.19c-3.274,0-6.302-0.642-8.999-1.909c-8.187-3.85-13.525-13.146-15.037-26.178
	c-0.745-6.41-2.994-11.27-6.684-14.445c-2.343-2.015-6.702-4.418-14.152-4.418c-1.558,0-3.196,0.109-4.869,0.325
	c-3.957,0.517-17.028,3.339-18.611,17.907c-1.654,15.252-8.205,24.99-19.469,28.941c-2.238,0.785-4.587,1.182-6.985,1.182
	c-9.398,0-17.429-6.013-22.744-9.992c-1.297-0.971-2.522-1.889-3.262-2.325c-1.957-1.158-4.912-1.876-7.715-1.876
	c-1.998,0-4.897,0.349-7.37,2.008c-4.554,3.065-6.878,9.626-5.645,15.95c1.238,6.38,4.666,10.743,9.005,16.266
	C66.947,122.485,70.006,126.379,72.85,131.252z M253.304,303.43l1.21-10.065c1.659-13.792,3.3-28.623,4.069-43.628
	c1.176-22.808,0.984-47.427,0.207-59.012l-0.315-4.699l4.21-2.11c7.126-3.573,15.457-5.541,23.457-5.541
	c1.113,0,2.219,0.04,3.286,0.118c14.85,1.077,25.046,11.147,29.802,17.054c7.907,9.842,11.092,26.138,8.521,43.597
	c-3.17,21.507-18.473,36.005-25.827,42.972c-6.337,6.013-27.345,16.312-38.752,18.994L253.304,303.43z M273.204,194.82
	c0.579,13.293,0.602,34.927-0.467,55.645c-0.585,11.413-1.652,22.66-2.853,33.426c9.051-3.742,19.307-9.233,22.287-12.062
	c6.203-5.877,19.103-18.097,21.558-34.752c2.361-16.045-1.315-27.385-5.544-32.648c-3.308-4.108-10.283-11.111-19.788-11.801
	c-0.729-0.053-1.485-0.08-2.256-0.08C281.877,192.548,277.348,193.356,273.204,194.82z"/>
</svg>
