<?xml version="1.0" encoding="utf-8"?>
<!-- Generator: Adobe Illustrator 15.0.0, SVG Export Plug-In . SVG Version: 6.00 Build 0)  -->
<!DOCTYPE svg PUBLIC "-//W3C//DTD SVG 1.0//EN" "http://www.w3.org/TR/2001/REC-SVG-20010904/DTD/svg10.dtd">
<svg version="1.0" id="Ebene_1" xmlns="http://www.w3.org/2000/svg" xmlns:xlink="http://www.w3.org/1999/xlink" x="0px" y="0px"
	 width="312.784px" height="321.8px" viewBox="0 0 312.784 321.8" enable-background="new 0 0 312.784 321.8" xml:space="preserve">
<path fill="#FFF143" d="M309.331,86.68c-4.73-11.92-13.98-19.78-26.051-22.13c-0.578-0.12-1.18-0.22-1.789-0.31
	c-0.029-1.81-0.08-3.57-0.141-5.34c-0.059-1.76-0.109-3.43-0.129-4.95c0-0.12,0-0.23-0.01-0.4l-0.01-0.25
	c-1.461-24.62-17.441-36.27-30.551-41.69c-11.541-4.9-26.811-3.57-45.27,3.95C193.981,5.37,176.93,0,155.85,0
	c-21.09,0-38.14,5.37-49.54,15.55C95.16,11,85.109,8.7,76.411,8.7c-5.65,0-10.789,0.97-15.27,2.86
	C47.961,17.02,31.93,28.69,30.49,53.23c-0.01,0.12-0.01,0.24-0.02,0.4l-0.01,0.29c-0.01,1.23-0.051,2.51-0.09,3.85L30.34,58.9
	c-0.059,1.77-0.109,3.61-0.148,5.52c-0.23,0.04-0.461,0.08-0.682,0.13C17.43,66.9,8.18,74.77,3.461,86.68
	c-7.361,18.53-2.701,45.12,11.32,64.67c7.039,9.801,16.689,18.25,27.93,24.43c11.309,6.21,23.07,9.497,34,9.497
	c9.328,0,17.779-2.296,25.109-6.828c2.029-1.259,4-2.638,5.859-4.1c0.4,0.17,0.811,0.34,1.221,0.51
	c3.32,1.381,13.08,5.441,15.52,7.41c1.551,5.56,1.1,30.771,0.949,39.281c-0.109,5.68-0.189,10.75-0.189,15.279
	c0,19.721-1.09,27.191-1.85,30c-3.33,0.41-8.939,0.811-13.27,1.111l-0.141,0.01c-28.41,1.99-49.228,4.289-58.489,15.85
	c-4.139,5.17-4.979,11.65-2.25,17.33c3.711,7.721,12.881,13.641,45.56,17.439c17.32,2.031,40.17,3.23,61.11,3.23
	c20.941,0,43.781-1.199,61.102-3.23c32.68-3.799,41.85-9.719,45.549-17.43c2.74-5.689,1.9-12.17-2.25-17.35
	c-9.26-11.551-30.08-13.85-58.49-15.84l-0.199-0.02c-4.311-0.301-9.891-0.691-13.211-1.102c-0.76-2.809-1.85-10.289-1.85-30
	c0-4.398-0.08-9.289-0.17-14.469l-0.01-0.76c-0.15-8.5-0.6-33.711,0.949-39.322c2.461-1.988,12.211-6.039,15.541-7.429l1.359-0.571
	c0.189-0.08,0.371-0.16,0.561-0.229c1.939,1.549,4.029,3.03,6.23,4.389c7.33,4.541,15.779,6.837,25.119,6.837
	c22.121,0,47.58-13.947,61.93-33.927C312.02,131.81,316.68,105.22,309.331,86.68z M236.081,159.77c-1.689,0-3.311-0.139-4.83-0.43
	c16.82-12.32,31.131-28.661,39.92-45.75c3.93-7.64,6.68-15.44,8.34-23.73c2.861,0.88,4.77,2.84,6.111,6.23
	c4.109,10.38,0.449,28.12-8.342,40.38C267.59,149.971,250.26,159.77,236.081,159.77z M76.711,159.77
	c-14.191,0-31.51-9.799-41.202-23.299c-8.799-12.26-12.459-30-8.34-40.38c1.18-2.97,2.801-4.85,5.08-5.85
	c1.68,8.15,4.391,15.82,8.26,23.35c8.852,17.21,23.231,33.58,40.131,45.9C79.381,159.68,78.07,159.77,76.711,159.77z
	 M207.68,144.381c-0.57,0.35-1.129,0.68-1.68,0.988c-3.369,1.922-8.279,3.961-13.02,5.932l-0.211,0.1
	c-11.648,4.84-22.639,9.43-27.568,17.891c-4.662,7.969-4.922,22.908-4.391,52.759l0.01,0.961c0.09,4.979,0.17,9.689,0.17,13.818
	c0,26.291,1.01,45.441,14.029,52.541c4.611,2.529,10.621,3.029,24.961,4.029l0.18,0.01c2.34,0.17,4.76,0.34,7.211,0.531
	c-15.512,1.5-34.08,2.359-51.521,2.359c-17.45,0-36.021-0.859-51.53-2.359c2.449-0.191,4.869-0.361,7.199-0.531l0.191-0.01
	c14.328-1,20.329-1.5,24.94-4.02c13.029-7.109,14.04-26.27,14.04-52.551c0-4.299,0.09-9.26,0.191-14.818
	c0.529-29.832,0.27-44.761-4.391-52.732c-4.952-8.439-16.03-13.068-26.802-17.568l-0.449-0.182c-0.201-0.09-0.391-0.17-0.529-0.219
	l-0.141-0.061c-4.711-1.959-9.58-3.99-12.9-5.881l-0.881-0.52c-13.479-7.879-31.488-23.3-41.587-42.93
	c-2.691-5.24-4.602-10.55-5.82-16.24c-1.111-5.14-1.65-10.46-1.701-16.75c-0.029-3.12,0.061-6.11,0.15-8.99l0.051-1.64
	c0.039-1.31,0.07-2.58,0.09-3.79c0.359-5.84,2.33-14.17,15.039-19.42c1.35-0.57,3.211-0.88,5.4-0.88
	c6.929,0,16.708,2.93,27.519,8.24c1.74,0.85,3.679,1.3,5.609,1.3c4.182,0,8.102-2.04,10.48-5.47
	c7.362-10.56,23.541-12.78,35.831-12.78c12.281,0,28.461,2.22,35.82,12.78c2.381,3.43,6.301,5.47,10.471,5.47
	c1.93,0,3.869-0.45,5.609-1.3c10.83-5.31,20.609-8.24,27.529-8.24c2.211,0,4.051,0.31,5.521,0.93
	c13.969,5.77,14.689,15.57,14.92,19.38c0.02,1.63,0.07,3.37,0.129,5.18l0.01,0.34c0.092,2.91,0.182,5.92,0.15,9.08
	c-0.059,6.3-0.619,11.64-1.75,16.8c-1.24,5.6-3.129,10.83-5.779,16C236.03,126.13,214.11,140.541,207.68,144.381z"/>
<path fill="#FFF143" d="M138.043,144.58c-3.289,0-6.576-1.264-9.07-3.787c-12.018-12.154-29.1-49.509-29.457-69.636
	c-0.125-7.043,5.484-12.855,12.527-12.98c7.059-0.134,12.855,5.484,12.98,12.528c0.227,12.806,14.287,44.258,22.091,52.15
	c4.953,5.01,4.908,13.086-0.102,18.04C144.525,143.354,141.283,144.58,138.043,144.58z"/>
<path fill="#FFF143" d="M173.28,144.58c-3.24,0-6.482-1.227-8.969-3.686c-5.01-4.954-5.055-13.03-0.102-18.04
	c7.803-7.892,21.863-39.344,22.09-52.15c0.125-7.044,5.949-12.692,12.98-12.528c7.045,0.125,12.652,5.937,12.527,12.98
	c-0.357,20.127-17.439,57.482-29.457,69.636C179.856,143.316,176.569,144.58,173.28,144.58z"/>
</svg>
