<?xml version="1.0" encoding="UTF-8" standalone="no"?>
<!-- Created with Inkscape (http://www.inkscape.org/) -->

<svg
   xmlns:dc="http://purl.org/dc/elements/1.1/"
   xmlns:cc="http://creativecommons.org/ns#"
   xmlns:rdf="http://www.w3.org/1999/02/22-rdf-syntax-ns#"
   xmlns:svg="http://www.w3.org/2000/svg"
   xmlns="http://www.w3.org/2000/svg"
   version="1.1"
   width="640"
   height="640"
   id="svg2"
   xml:space="preserve"><metadata
     id="metadata8"><rdf:RDF><cc:Work
         rdf:about=""><dc:format>image/svg+xml</dc:format><dc:type
           rdf:resource="http://purl.org/dc/dcmitype/StillImage" /><dc:title></dc:title></cc:Work></rdf:RDF></metadata><defs
     id="defs6"><clipPath
       id="clipPath16"><path
         d="M 0,512 512,512 512,0 0,0 0,512 z"
         id="path18" /></clipPath></defs><g
     transform="matrix(1.25,0,0,-1.25,0,640)"
     id="g10"><g
       id="g12"><g
         clip-path="url(#clipPath16)"
         id="g14"><g
           transform="translate(134,280.3994)"
           id="g20"><path
             d="m 0,0 -1.52,1.38 c -0.06,0.06 -6.32,5.68 -10.35,8.59 -5.63,4.04 -9.85,11.59 -6.6,17.63 1.74,3.22 5.19,5.06 9.73,5.19 2.24,0.06 4.15,-0.3 5.11,-0.51 0.72,-0.17 1.51,-0.44 2.43,-0.74 2.36,-0.81 5.6,-1.9 9.18,-1.8 1.06,0.03 2.08,0.16 3.06,0.4 5.77,1.41 9.15,7.64 9.43,8.87 0.95,4.13 0.67,9.1 0.41,13.48 l -0.09,1.77 c -0.32,5.91 3.09,12.63 11.38,14.32 1.35,0.28 2.67,0.44 3.91,0.47 7.36,0.21 11.21,-3.77 13.07,-5.68 l 0.18,-0.2 c 2.53,-2.6 3.97,-5.96 5.26,-8.93 0.97,-2.25 1.96,-4.6 3.07,-5.54 2.92,-2.53 7.51,-5.18 11.64,-5.06 0.71,0.02 1.41,0.12 2.05,0.3 3.08,0.9 5.88,3.92 8.35,6.6 1.97,2.13 3.67,3.97 5.7,5 1.58,0.79 4.72,2.13 8.08,2.23 3.82,0.11 6.98,-1.43 8.87,-4.33 3.28,-5.01 2.82,-10.87 1.42,-14.37 -0.94,-2.34 -5.69,-12.66 -6.24,-13.83 L 96.73,23.48 94.9,22.84 C 94.68,22.76 72.62,15.02 46.59,8.67 20.49,2.32 2.8,0.31 2.05,0.22 L 0,0 z m -9.73,-102.77 c -1.78,0.36 -17.54,3.76 -24.78,11.621 -7.82,8.519 -11.89,18.489 -11.15,27.379 0.83,9.89 6.34,16.44 9.46,18.75 2.42,1.791 5.48,2.24 7.64,2.3 2.34,0.071 4.72,-0.29 6.69,-1 l 2.45,-0.89 0.49,-2.55 c 0.02,-0.12 2.22,-11.489 5.54,-22.739 3.34,-11.321 8.83,-26.681 8.88,-26.83 l 2.75,-7.661 -7.97,1.62 z m 114.52,-25.29 c -5.43,-2.35 -13.1,-5.14 -23.11,-7.58 -13.81,-3.37 -24.75,-4.299 -31.49,-4.49 -3.7,-0.099 -5.8,0.03 -5.88,0.03 l -2.7,0.18 -1.15,2.441 c -0.13,0.29 -13.67,29.089 -22.14,51.759 -8.57,22.96 -13.44,54.571 -13.64,55.9 L 4,-25.33 8.49,-24.6 c 0.24,0.04 25.11,4.06 45.89,9.13 20.76,5.06 42.18,12.31 42.4,12.38 l 4.61,1.57 0.03,-0.12 c 4.93,17.26 10.81,37.29 14.52,47.73 -2.2,6.01 -6.25,20.18 -3.01,36.44 -3.47,1.92 -7.42,3.23 -11.88,3.95 -1.04,0.15 -2.2,0.22 -3.49,0.19 -8.07,-0.23 -18.89,-4.45 -22.49,-7.78 l -3.79,-3.52 -3.04,4.2 C 68.15,79.7 58.56,92.67 39.06,92.12 35.78,92.02 32.35,91.54 28.88,90.69 2.29,84.22 -2.98,67.36 -2.73,61.96 l 0.2,-4.49 -4.51,-0.29 c -6.1,-0.38 -23.22,-3.3 -29.08,-12.12 -7.58,-11.41 -9.46,-23.53 -5.29,-34.14 4.15,-10.55 11.63,-19.61 15.38,-22.84 l 8.84,-7.63 -11.67,-0.42 c -0.31,-0.01 -30.52,-1.33 -37.75,-23.36 -5.68,-17.31 -4.23,-33.75 4.44,-50.24 6.37,-12.1 14.85,-19.94 29.3,-27.06 13.52,-6.67 37.5,-9.17 37.74,-9.19 l 2.81,-0.28 1.02,-2.65 c 3.6,-9.47 11.5,-25.83 17.34,-29.39 4.74,-2.88 14.64,-4.4 26.47,-4.06 9.17,0.261 19.23,1.61 29.13,3.91 23.46,5.44 44.36,13.4 53.03,19.84 -9.3,3.66 -20.69,8.69 -29.88,14.39"
             id="path22"
             style="fill:#ffffff;fill-opacity:1;fill-rule:nonzero;stroke:none" /></g><g
           transform="translate(225.5039,382.2456)"
           id="g24"><path
             d="m 0,0 c 5.22,4.038 -6.574,35.945 -9.682,41.593 -3.107,5.649 -9.261,5.848 -14.574,1.976 C -28.607,40.397 -32.416,34.057 -29,26.813 -23.762,15.697 -5.312,-4.108 0,0"
             id="path26"
             style="fill:#ffffff;fill-opacity:1;fill-rule:nonzero;stroke:none" /></g><g
           transform="translate(262.1772,400.7588)"
           id="g28"><path
             d="m 0,0 c -5.583,2.535 -4.079,35.013 -2.937,41.002 1.142,5.988 6.381,7.62 12,5.263 4.601,-1.932 9.595,-6.94 8.621,-14.488 C 16.187,20.198 5.682,-2.577 0,0"
             id="path30"
             style="fill:#ffffff;fill-opacity:1;fill-rule:nonzero;stroke:none" /></g><g
           transform="translate(282.7993,130.9121)"
           id="g32"><path
             d="m 0,0 c -4.768,-3.993 6.61,-38.943 9.567,-45.194 2.957,-6.253 8.652,-6.863 13.507,-3.055 3.977,3.122 7.404,9.671 4.14,17.653 C 22.204,-18.348 4.851,4.061 0,0"
             id="path34"
             style="fill:#ffffff;fill-opacity:1;fill-rule:nonzero;stroke:none" /></g><g
           transform="translate(247.6201,111.5098)"
           id="g36"><path
             d="m 0,0 c 5.716,-2.218 6.041,-34.729 5.237,-40.772 -0.804,-6.043 -5.943,-7.965 -11.686,-5.929 -4.702,1.669 -9.969,6.389 -9.421,13.979 C -15.026,-21.074 -5.818,2.255 0,0"
             id="path38"
             style="fill:#ffffff;fill-opacity:1;fill-rule:nonzero;stroke:none" /></g><g
           transform="translate(296.1235,362.9834)"
           id="g40"><path
             d="m 0,0 c -3.786,0.449 -7.051,-0.8 -9.193,-3.515 -3.695,-4.672 -3.757,-10.523 -2.689,-14.113 0.728,-2.413 4.528,-13.078 4.958,-14.286 l 0.651,-1.818 1.753,-0.802 c 0.211,-0.096 21.403,-9.741 46.665,-18.354 25.325,-8.634 42.706,-12.199 43.434,-12.346 l 2.01,-0.407 1.639,1.232 c 0.07,0.051 6.773,5.081 11.036,7.604 5.938,3.504 10.8,10.622 8.105,16.907 -1.43,3.336 -4.693,5.468 -9.188,6.002 -2.206,0.262 -4.139,0.085 -5.095,-0.045 -0.749,-0.102 -1.556,-0.297 -2.491,-0.524 -2.416,-0.584 -5.722,-1.384 -9.271,-0.962 -1.038,0.123 -2.045,0.349 -2.99,0.671 -5.603,1.91 -8.399,8.394 -8.574,9.641 -0.581,4.188 0.15,9.089 0.793,13.412 l 0.256,1.743 C 72.644,-4.124 69.866,2.845 61.787,5.264 60.471,5.657 59.18,5.929 57.946,6.076 50.664,6.94 46.485,3.332 44.475,1.597 L 44.278,1.428 c -2.744,-2.364 -4.476,-5.569 -6.006,-8.397 -1.161,-2.154 -2.368,-4.382 -3.545,-5.225 -3.126,-2.244 -7.917,-4.466 -12.001,-3.981 -0.705,0.083 -1.379,0.249 -2.007,0.49 -2.977,1.148 -5.482,4.408 -7.693,7.284 -1.761,2.29 -3.283,4.268 -5.209,5.463 C 6.322,-2.011 3.317,-0.394 0,0 m 112.131,-110.563 c -2.331,0.277 -4.728,0.134 -6.74,-0.402 l -2.501,-0.665 -0.714,-2.486 c -0.034,-0.111 -3.239,-11.223 -7.524,-22.066 -4.315,-10.938 -11.132,-25.687 -11.202,-25.833 l -3.404,-7.356 8.055,0.9 c 1.792,0.2 17.729,2.166 25.606,9.331 8.519,7.747 13.44,17.283 13.501,26.161 0.064,9.882 -4.817,16.878 -7.711,19.453 -2.241,1.992 -5.244,2.711 -7.366,2.963 m -126.956,47.892 c -0.109,-0.295 -11.041,-29.787 -17.446,-55.667 -6.478,-26.141 -6.826,-54.126 -6.839,-55.303 l -0.022,-2.187 1.692,-1.388 c 0.41,-0.338 10.332,-8.36 31.921,-15.722 13.403,-4.569 24.169,-6.47 30.84,-7.262 3.655,-0.435 5.753,-0.487 5.84,-0.491 l 2.69,-0.061 1.356,2.321 c 0.162,0.273 16.152,27.637 26.573,49.377 10.549,22.01 18.19,52.942 18.51,54.247 l 1.078,4.396 -4.387,1.117 c -0.243,0.061 -24.549,6.269 -44.712,13.145 -20.165,6.873 -40.761,15.969 -40.966,16.06 l -4.438,1.966 -1.69,-4.548 z m 35.516,-163.186 c -9.067,1.077 -18.936,3.316 -28.542,6.473 -27.172,8.942 -50.427,21.077 -54.09,28.23 -4.062,7.942 -3.643,44.458 5.241,76.704 8.12,29.476 18.359,65.034 22.736,76.428 l 0.696,1.814 -0.822,1.759 c -0.085,0.182 -8.837,19.543 -1.105,39.814 5.721,15.003 15.613,22.782 30.245,23.783 1.033,0.071 2.203,0.03 3.479,-0.122 7.975,-0.946 18.34,-6.086 21.608,-9.71 l 3.454,-3.835 3.384,3.9 c 0.423,0.477 10.975,12.107 30.072,9.84 3.247,-0.385 6.603,-1.163 9.975,-2.314 C 92.816,18.115 96.551,0.92 95.826,-4.41 l -0.605,-4.458 4.448,-0.673 c 6.017,-0.918 22.745,-5.337 27.77,-14.61 6.503,-11.998 7.285,-24.196 2.204,-34.344 -5.056,-10.099 -13.286,-18.416 -17.288,-21.287 l -9.502,-6.82 11.61,-1.42 c 0.296,-0.038 30.149,-4.041 35.362,-26.543 4.09,-17.679 1.184,-33.854 -8.892,-49.45 -7.388,-11.437 -16.506,-18.457 -31.471,-24.229 -14.013,-5.413 -38.024,-5.756 -38.266,-5.758 l -2.818,-0.032 -1.233,-2.535 c -4.426,-9.082 -13.723,-24.614 -19.832,-27.618 -4.961,-2.437 -14.912,-3.06 -26.62,-1.67 l -0.002,0 z"
             id="path42"
             style="fill:#ffffff;fill-opacity:1;fill-rule:nonzero;stroke:none" /></g></g></g></g></svg>